<?xml version="1.0" encoding="utf-8"?><!--Generator: Adobe Illustrator 21.0.0, SVG Export Plug-In . SVG Version: 6.00 Build 0)--><svg version="1.1" id="Layer_1" xmlns="http://www.w3.org/2000/svg" xmlns:xlink="http://www.w3.org/1999/xlink" x="0px" y="0px" width="135px" height="13px" viewBox="0 0 135 13" style="enable-background:new 0 0 135 13" xml:space="preserve"><style type="text/css">.st0{fill:#666666;}</style><title>Icons / Logos / SpringerNature</title><path class="st0" d="M72.8,5.1c0-2.7-2.3-3.7-4.5-3.7c-1.1,0-2.8,0-3.7,0v11.2h2.8V9.3h0.8l0.5,0l0,0l0,0c0.5,0.7,1.1,1.9,1.2,3.4
	l1.5,0h0.8l0.8,0c-0.3-1.7-1.2-3.4-1.7-4.3l0,0l0,0C72.2,7.6,72.8,6.5,72.8,5.1z M69.8,5.5c0,1.2-0.5,1.7-1.6,1.7
	c-0.4,0-0.6,0-0.8,0l0,0V3.6l0,0c0.2,0,0.6,0,0.8,0C69.5,3.6,69.8,4.3,69.8,5.5z M62.5,12.7v-2.2h-4V8h3.6V5.9h-3.6V3.7h4V1.5h-6.6
	v9.2c0,0,0,0.9,0.6,1.5c0.4,0.4,0.9,0.6,1.5,0.6C60,12.8,62.2,12.7,62.5,12.7z M50,13c1.1,0,2.7-0.3,3.9-0.9V6.6h-3.7v1.9h1.2v2.3
	l0,0c-0.3,0.1-1,0.2-1.2,0.2c-1.5,0-2.1-1.1-2.1-3.9c0-2.5,0.8-3.6,2.6-3.6c0.6,0,1.4,0.3,2.3,0.7l0.8-1.9c-1.1-0.7-2.3-1-3.5-1
	c-1.7,0-2.9,0.5-3.7,1.5c-0.8,1-1.2,2.4-1.2,4.4C45.3,11.4,46.6,13,50,13z M40.5,12.7h2.9V1.5H41v7.3l-3.3-7.3h-3.1v11.2h2.5V5.6
	C37.1,5.6,40.5,12.7,40.5,12.7z M29.4,12.7h2.8V1.5h-2.8C29.4,1.5,29.4,12.7,29.4,12.7z M25.8,8.4L25.8,8.4L25.8,8.4
	c0.9-0.8,1.5-1.9,1.5-3.3c0-2.7-2.3-3.7-4.5-3.7c-1.1,0-2.8,0-3.7,0v11.2h2.8V9.3h0.9l0.5,0l0,0l0,0c0.5,0.7,1.1,1.9,1.2,3.4l1.5,0
	h0.8l0.8,0C27.3,11,26.4,9.3,25.8,8.4z M24.3,5.5c0,1.2-0.5,1.7-1.6,1.7c-0.4,0-0.6,0-0.8,0l0,0V3.6l0,0c0.2,0,0.6,0,0.8,0
	C24.1,3.6,24.3,4.3,24.3,5.5z M17.7,5.1c0-2.3-1.5-3.6-4.2-3.6c-1.1,0-2.8,0-3.7,0v11.2h2.8V9.3h0.9C14.7,9.3,17.7,8.9,17.7,5.1z
	 M15.1,5.5c0,1.2-0.5,1.7-1.6,1.7c-0.4,0-0.6,0-0.8,0l0,0V3.6l0,0c0.2,0,0.6,0,0.8,0C14.8,3.6,15.1,4.3,15.1,5.5z M3.2,3.6
	c0-0.6,0.4-1.3,1.3-1.3C5.2,2.4,6,2.6,7,3l1-2C6.8,0.3,5.6,0,4.3,0C1.8,0,0.3,1.4,0.3,3.6S2,6.8,3.5,7.5c1,0.5,1.9,1,1.9,1.8
	c0,0.7-0.6,1.2-1.6,1.2C3,10.5,2.1,10.2,1,9.7l-1,2.2c1.4,0.8,2.6,1.1,4,1.1c2.6,0,4.2-1.5,4.2-3.9c0-2.3-1.8-3.1-3.2-3.8
	C4.1,4.8,3.2,4.4,3.2,3.6L3.2,3.6L3.2,3.6z M131,10.5V8h3.6V5.9H131V3.7h4V1.5h-6.6v9.2c0,0,0,0.9,0.6,1.5c0.4,0.4,0.9,0.6,1.5,0.6
	c2,0,4.3-0.1,4.6-0.1v-2.2H131C131,10.5,131,10.5,131,10.5z M124.9,8.4L124.9,8.4L124.9,8.4c0.9-0.8,1.5-1.9,1.5-3.3
	c0-2.7-2.3-3.7-4.5-3.7c-1.1,0-2.8,0-3.7,0v11.2h2.8V9.3h0.8l0.5,0l0,0l0,0c0.5,0.7,1.1,1.9,1.2,3.4l1.5,0h0.8l0.8,0
	C126.4,11,125.5,9.3,124.9,8.4L124.9,8.4C125,8.4,124.9,8.4,124.9,8.4z M123.4,5.5c0,1.2-0.5,1.7-1.6,1.7c-0.4,0-0.6,0-0.8,0l0,0
	V3.6l0,0c0.2,0,0.6,0,0.8,0C123.2,3.6,123.4,4.3,123.4,5.5z M116.2,8.7V1.5h-2.9v7.5c0,1.1-0.1,1.9-1.4,1.9c-1.2,0-1.4-0.6-1.4-1.9
	V1.5h-2.9v7.6c0,2.7,1.3,3.9,4.2,3.9C114.8,13,116.1,11.6,116.2,8.7C116.1,8.7,116.1,8.7,116.2,8.7z M103.7,3.8h2.1V1.5h-7.6v2.3
	h2.5v8.9h2.9L103.7,3.8L103.7,3.8z M95.2,12.7h3L95.5,1.5h-4.4l-2.7,11.2h2.9l0.4-1.8h3.1L95.2,12.7C95.2,12.7,95.2,12.7,95.2,12.7z
	 M94.5,8.8H92l1.2-4.9h0.1l0,0L94.5,8.8z M83.5,12.7h3.3V0.1h-2.7l0.1,8.8l-4.1-8.8h-3.3v12.6h2.6l0-8.7l0.1,0.2L83.5,12.7
	L83.5,12.7z"/></svg>